<?xml version="1.0" encoding="UTF-8"?>
<svg id="bowl" xmlns="http://www.w3.org/2000/svg" viewBox="0 0 400 400">
  <path d="M88.65,164.57c3.02-1.74,6.37-2.98,9.98-3.64,3.96-.72,7.88-.66,11.61.06-.1-10.51,5.09-20.66,14.17-26.62" fill="none" stroke="#2e7d32" stroke-linecap="round" stroke-linejoin="round" stroke-width="12"/>
  <path d="M271.15,130.76c4.31,5.58,6.65,12.5,6.58,19.58,3.73-.71,7.64-.78,11.6-.06,3.77.69,7.26,2.02,10.37,3.86" fill="none" stroke="#2e7d32" stroke-linecap="round" stroke-linejoin="round" stroke-width="12"/>
  <path d="M167.56,131.31c7.44-11.9,21.61-18.7,36.27-16.03,8.39,1.53,15.55,5.91,20.66,11.96,7.65-7.3,18.63-10.38,29.12-7.84" fill="none" stroke="#2e7d32" stroke-linecap="round" stroke-linejoin="round" stroke-width="12"/>
  <g>
    <path d="M139.95,188.53c-13.74-14.8-19.16-35.06-15.54-54.16,1.25-6.58,3.56-13.02,6.98-19.05,2.7-4.77,9.1-5.89,13.37-2.44l11.33,9.16c-3.08-2.38-7.61-1.55-9.54,1.85-10.67,18.83-6.48,43.16,10.91,57.22,4.85,3.92,10.27,6.68,15.91,8.29" fill="none" stroke="#2e7d32" stroke-linecap="round" stroke-linejoin="round" stroke-width="12"/>
    <polyline points="183.21 179.33 185.8 146.06 204.5 161.19" fill="none" stroke="#2e7d32" stroke-linecap="round" stroke-linejoin="round" stroke-width="12"/>
    <path d="M185.8,146.06l-2.59,33.27c-4.1,2.43-7.51,5.91-9.84,10.07-5.64-1.61-11.06-4.37-15.91-8.29-17.39-14.06-21.58-38.39-10.91-57.22,1.93-3.4,6.46-4.23,9.54-1.85.04.02.07.05.11.08l29.6,23.94Z" fill="none" stroke="#2e7d32" stroke-linecap="round" stroke-linejoin="round" stroke-width="12"/>
    <path d="M171.89,192.45c4.04-9.92,13.79-16.91,25.16-16.91,15.01,0,27.17,12.16,27.17,27.16,0,1.77-.17,3.49-.49,5.17" fill="none" stroke="#2e7d32" stroke-linecap="round" stroke-linejoin="round" stroke-width="12"/>
    <path d="M126.2,209.93c1.16-13.94,12.84-24.88,27.07-24.88,7.21,0,13.76,2.81,18.62,7.4,4.81,4.52,7.97,10.78,8.47,17.78" fill="none" stroke="#2e7d32" stroke-linecap="round" stroke-linejoin="round" stroke-width="12"/>
    <line x1="185.799" y1="146.064" x2="142.595" y2="158.882" fill="none" stroke="#2e7d32" stroke-linecap="round" stroke-linejoin="round" stroke-width="12"/>
  </g>
  <g>
    <path d="M194.75,175.64l9.75-14.45,1.91-2.83c6.52-9.68,18.05-13.94,28.8-11.67l18.4-27.29,43.95-65.21c2.01-2.99,5.31-4.6,8.67-4.6,2.01,0,4.04.57,5.83,1.78,4.78,3.22,6.05,9.72,2.82,14.5l-43.73,64.89-18.61,27.61c6.13,9.11,6.51,21.4-.01,31.08l-14.977,22.222" fill="none" stroke="#2e7d32" stroke-linecap="round" stroke-linejoin="round" stroke-width="12"/>
    <line x1="219.25" y1="172.48" x2="213.46" y2="181.06" fill="none" stroke="#2e7d32" stroke-linecap="round" stroke-linejoin="round" stroke-width="12"/>
    <line x1="234.63" y1="182.84" x2="223.93" y2="198.72" fill="none" stroke="#2e7d32" stroke-linecap="round" stroke-linejoin="round" stroke-width="12"/>
  </g>
  <g>
    <path d="M68.19,248.39c-.16-2.03-.06-4.03.27-5.97-9.18.27-18.12-4.72-22.43-13.51-4.52-9.19-2.66-19.86,3.86-26.99-4.72-3.82-8.19-9.25-9.5-15.67-2.98-14.68,6.5-28.99,21.18-31.97,10.59-2.15,20.99,2.19,27.08,10.29,2.35,3.12,4.05,6.81,4.88,10.89.02.06.03.13.04.19,1.55-.68,3.19-1.21,4.92-1.56,13.09-2.66,25.85,5.79,28.51,18.88,1.18,5.83.16,11.59-2.49,16.42.57.16,1.14.34,1.69.54,4.17,1.49,7.88,4.1,10.67,7.55" fill="none" stroke="#2e7d32" stroke-linecap="round" stroke-linejoin="round" stroke-width="12"/>
    <line x1="109.035" y1="248.253" x2="66.1" y2="179.975" fill="none" stroke="#2e7d32" stroke-linecap="round" stroke-linejoin="round" stroke-width="12"/>
    <polyline points="104.688 195.818 90.181 218.215 64.986 219.571" fill="none" stroke="#2e7d32" stroke-linecap="round" stroke-linejoin="round" stroke-width="12"/>
    <polyline points="117.548 227.648 106.808 244.229 88.321 247.093" fill="none" stroke="#2e7d32" stroke-linecap="round" stroke-linejoin="round" stroke-width="12"/>
  </g>
  <g>
    <path d="M263.88,248.39c-1.12-11.24-6.34-21.26-14.13-28.56,3.08-4.32,7.41-7.65,12.4-9.52-3.38-5.06-5.07-11.29-4.33-17.81,1.65-14.66,14.86-25.2,29.51-23.55,1.94.22,3.8.65,5.57,1.25.01-.08.01-.15.02-.22.68-6.06,3.13-11.49,6.78-15.84,6.22-7.45,15.95-11.73,26.31-10.56,16.43,1.85,28.25,16.67,26.4,33.1-.81,7.19-4.1,13.49-8.92,18.16,7.86,7.2,10.95,18.75,6.88,29.31-3.9,10.07-13.24,16.44-23.36,17.03.61,2.31.92,4.73.88,7.21" fill="none" stroke="#2e7d32" stroke-linecap="round" stroke-linejoin="round" stroke-width="12"/>
    <line x1="284.637" y1="248.253" x2="323.529" y2="172.279" fill="none" stroke="#2e7d32" stroke-linecap="round" stroke-linejoin="round" stroke-width="12"/>
    <polyline points="282.633 193.456 300.765 216.676 328.605 215.716" fill="none" stroke="#2e7d32" stroke-linecap="round" stroke-linejoin="round" stroke-width="12"/>
    <polyline points="271.586 229.712 285.009 246.902 305.619 248.253" fill="none" stroke="#2e7d32" stroke-linecap="round" stroke-linejoin="round" stroke-width="12"/>
  </g>
  <g>
    <path d="M120,248.39c.87-8.74,4.22-16.74,9.34-23.3,2.2-2.83,4.73-5.38,7.53-7.61,7.75-6.19,17.56-9.88,28.25-9.88,1.78,0,3.54.1,5.26.31,3.46.4,6.8,1.18,9.98,2.32,4.18,1.49,8.08,3.58,11.59,6.16" fill="none" stroke="#2e7d32" stroke-linecap="round" stroke-linejoin="round" stroke-width="12"/>
    <path d="M139.58,248.39c2.14-12.16,12.76-21.4,25.54-21.4,5.12,0,9.91,1.49,13.93,4.06" fill="none" stroke="#2e7d32" stroke-linecap="round" stroke-linejoin="round" stroke-width="12"/>
  </g>
  <g>
    <path d="M173.65,248.39c.63-6.24,2.51-12.1,5.4-17.34,1.03-1.88,2.2-3.68,3.49-5.38,2.67-3.54,5.84-6.67,9.41-9.28,7.51-5.53,16.78-8.79,26.82-8.79,1.68,0,3.33.09,4.96.27,10.01,1.09,19.05,5.44,26.02,11.96,7.79,7.3,13.01,17.32,14.13,28.56" fill="none" stroke="#2e7d32" stroke-linecap="round" stroke-linejoin="round" stroke-width="12"/>
    <path d="M193.23,248.39c2.14-12.16,12.76-21.4,25.54-21.4s23.39,9.24,25.53,21.4" fill="none" stroke="#2e7d32" stroke-linecap="round" stroke-linejoin="round" stroke-width="12"/>
  </g>
  <path d="M359.79,259.27l-1.62,15.08c-4.52,41.98-39.95,73.8-82.17,73.8H124.02c-42.22,0-77.65-31.82-82.16-73.8l-1.62-15.08c-.63-5.81,3.92-10.88,9.77-10.88h300c5.85,0,10.4,5.07,9.78,10.88Z" fill="none" stroke="#2e7d32" stroke-linecap="round" stroke-linejoin="round" stroke-width="12"/>
</svg>